<svg xmlns="http://www.w3.org/2000/svg" enable-background="new 0 0 24 24" viewBox="0 0 24 24"><path d="M21.25,24H2.75C1.233,24,0,22.767,0,21.25V2.75C0,1.233,1.233,0,2.75,0h18.5C22.767,0,24,1.233,24,2.75v18.5C24,22.767,22.767,24,21.25,24z M2.75,1.5C2.061,1.5,1.5,2.061,1.5,2.75v18.5c0,0.689,0.561,1.25,1.25,1.25h18.5c0.689,0,1.25-0.561,1.25-1.25V2.75c0-0.689-0.561-1.25-1.25-1.25H2.75z"/><path d="M17.75 19c-.26 0-.513-.135-.651-.377l-4.57-7.981c-.206-.359-.081-.817.278-1.023.358-.206.817-.082 1.023.278l4.57 7.981c.206.359.081.817-.278 1.023C18.005 18.968 17.877 19 17.75 19zM12 8.978c-.26 0-.514-.136-.652-.378L9.36 5.124C9.153 4.765 9.277 4.307 9.636 4.1c.357-.207.818-.083 1.024.276l1.992 3.48c.206.36.08.818-.28 1.023C12.254 8.946 12.126 8.978 12 8.978zM6.25 19c-.127 0-.255-.032-.373-.1-.359-.206-.483-.665-.277-1.024l.62-1.08c.207-.359.665-.484 1.024-.277.359.206.483.665.277 1.024l-.62 1.08C6.762 18.865 6.509 19 6.25 19z"/><path d="M8.109,15.76c-0.127,0-0.255-0.032-0.373-0.1c-0.359-0.206-0.483-0.665-0.277-1.024l5.88-10.259c0.206-0.36,0.666-0.485,1.023-0.278c0.36,0.206,0.484,0.664,0.278,1.024L8.76,15.383C8.622,15.625,8.369,15.76,8.109,15.76z"/><path d="M13.55 15.76h-8.8C4.336 15.76 4 15.424 4 15.01s.336-.75.75-.75h8.8c.414 0 .75.336.75.75S13.964 15.76 13.55 15.76zM19.25 15.76h-3.36c-.414 0-.75-.336-.75-.75s.336-.75.75-.75h3.36c.414 0 .75.336.75.75S19.664 15.76 19.25 15.76z"/></svg>